<svg width="166" height="159" viewBox="0 0 166 159" fill="none" xmlns="http://www.w3.org/2000/svg">
<path d="M91.4781 32.907L31.4626 18.4729L77.044 1L134.78 14.6744L91.4781 32.907Z" fill="#5046B9" stroke="#5046B9"/>
<path d="M80.7453 138.91C75.209 124.38 52.3964 96.4453 5.43674 100.94C24.2952 107.934 52.7706 108.06 80.7453 138.91Z" fill="#5046B9" stroke="#5046B9"/>
<path d="M80.8593 139.24C73.459 127.32 48.451 106.491 7.62151 118.538C25.5296 121.496 50.7776 116.716 80.8593 139.24Z" fill="#5046B9" stroke="#5046B9"/>
<path d="M79.7434 140.451C70.6092 131.118 43.0934 117.064 6.10377 135.516C23.7476 134.831 47.0811 125.821 79.7434 140.451Z" fill="#5046B9" stroke="#5046B9"/>
<path d="M85.787 138.126C91.9625 123.856 115.992 96.9609 162.706 103.534C143.556 109.685 115.103 108.548 85.787 138.126Z" fill="#5046B9" stroke="#5046B9"/>
<path d="M85.6585 138.451C93.5804 126.871 119.488 107.171 159.743 121.019C141.721 123.178 116.71 117.284 85.6585 138.451Z" fill="#5046B9" stroke="#5046B9"/>
<path d="M86.7195 139.71C96.2588 130.791 124.371 117.972 160.506 138.047C142.91 136.58 119.999 126.544 86.7195 139.71Z" fill="#5046B9" stroke="#5046B9"/>
<path d="M57.2921 102.039L64.1293 50.3799C80.5386 43.6946 95.783 47.5944 101.354 50.3799L108.951 101.279L84.6409 126.349L83.8812 90.6434H80.8424V124.829L57.2921 102.039Z" fill="#5046B9" stroke="#5046B9"/>
<path d="M59.7668 27.1863L90.7719 35.3442L103.767 31.0199L104.197 49.2632C98.1938 45.1025 80.9781 39.1184 60.1424 48.4678C59.7871 34.4809 59.7439 28.4522 59.7668 27.1863Z" fill="#5046B9" stroke="#5046B9"/>
<rect x="114.269" y="23.031" width="3.03876" height="25.8295" fill="#5046B9"/>
<rect x="112.749" y="44.3024" width="6.07752" height="3.03876" fill="#5046B9" fill-opacity="0.5"/>
<rect x="112.749" y="50.3799" width="6.07752" height="9.11628" fill="#5046B9" fill-opacity="0.5"/>
<rect x="114.269" y="50.3799" width="3.03876" height="9.11628" fill="#5046B9"/>
<circle cx="82.3618" cy="91.4031" r="3.03876" fill="#FAFAFA"/>
</svg>
